IKResults2
version=1
nRows=5
nColumns=40
inDegrees=yes

Units are S.I. units (second, meters, Newtons, ...)
If the header above contains a line with 'inDegrees', this indicates whether rotational values are in degrees (yes) or radians (no).

endheader
time	pelvis_tilt	pelvis_list	pelvis_rotation	pelvis_tx	pelvis_ty	pelvis_tz	hip_flexion_r	hip_adduction_r	hip_rotation_r	knee_angle_r	knee_angle_r_beta	ankle_angle_r	subtalar_angle_r	mtp_angle_r	hip_flexion_l	hip_adduction_l	hip_rotation_l	knee_angle_l	knee_angle_l_beta	ankle_angle_l	subtalar_angle_l	mtp_angle_l	lumbar_extension	lumbar_bending	lumbar_rotation	arm_flex_r	arm_add_r	arm_rot_r	elbow_flex_r	pro_sup_r	wrist_flex_r	wrist_dev_r	arm_flex_l	arm_add_l	arm_rot_l	elbow_flex_l	pro_sup_l	wrist_flex_l	wrist_dev_l
      2.64800000	     -4.90486457	      2.65156137	    -48.86590723	      1.78048691	      0.72106724	      0.26280231	    -14.72251198	    -35.11453657	    -24.59127551	     35.27597809	      0.61568196	     -0.08633984	    -26.37934945	    -12.83764006	     70.34147645	    -42.50105293	    -13.05747843	     63.89195187	      1.11512493	     -7.42839797	      0.13004678	      0.00000000	    -23.38954860	    -16.10388526	     -7.39986774	    -27.76991710	    -34.22149935	    -30.50952622	     86.22375947	     87.21782038	      0.00000000	      0.00000000	     84.90362393	    -53.82757447	     11.93073614	     31.38832903	     85.35762692	      0.00000000	      0.00000000
      2.65200000	     -4.53106111	      2.48582870	    -48.99648376	      1.77651564	      0.72370803	      0.26313334	    -14.93695495	    -35.02920682	    -24.46877895	     35.17458891	      0.61391239	      0.37986688	    -26.61173056	    -12.33738835	     69.14436258	    -42.40620690	    -13.65104013	     62.81148347	      1.09626719	     -8.03718476	     -0.28971775	      0.00000000	    -23.54086978	    -16.06455651	     -7.30313022	    -27.64512204	    -34.40898985	    -30.57480301	     86.23683135	     87.21642829	      0.00000000	      0.00000000	     82.95706641	    -53.93993751	     10.12821700	     32.03695562	     84.39503863	      0.00000000	      0.00000000
      2.65600000	     -4.48821818	      2.39973020	    -48.88681813	      1.77237965	      0.72564523	      0.26332922	    -14.92638404	    -34.67067966	    -24.46633550	     35.19875804	      0.61433422	      0.86972131	    -26.90561847	    -12.24090337	     68.56154428	    -42.17498133	    -13.79860453	     61.70166554	      1.07689722	     -8.33023163	     -0.21810434	      0.00000000	    -23.35970268	    -15.81064977	     -7.14063007	    -27.80176125	    -34.55620040	    -30.76269247	     86.25298416	     87.20451266	      0.00000000	      0.00000000	     81.73767625	    -53.89481209	      9.97286500	     31.82686663	     84.28012186	      0.00000000	      0.00000000
      2.66000000	     -4.36797061	      2.34667905	    -49.05219091	      1.76821659	      0.72795086	      0.26344527	    -14.69881295	    -34.46940583	    -24.08557480	     35.22334691	      0.61476338	      1.12366383	    -27.37721730	    -11.65440450	     67.75299116	    -42.10724950	    -14.18170223	     60.59594187	      1.05759870	     -8.95550597	     -0.60039582	      0.00000000	    -23.20382640	    -15.61975958	     -6.95193156	    -27.72184126	    -34.75664008	    -30.86732765	     86.31083327	     87.22524914	      0.00000000	      0.00000000	     79.37194082	    -53.88476070	      7.51864288	     32.56088237	     83.14739443	      0.00000000	      0.00000000
      2.66400000	     -4.31348024	      2.23679155	    -48.99277606	      1.76389315	      0.73006429	      0.26366565	    -14.66246231	    -34.10351398	    -24.02965250	     35.24017601	      0.61505710	      1.57118601	    -27.65660281	    -11.58596199	     67.11579770	    -41.89364906	    -14.29538984	     59.45325265	      1.03765501	     -9.24765043	     -0.52584271	      0.00000000	    -23.05756967	    -15.37149933	     -6.73420327	    -27.89117921	    -34.90569921	    -31.05932324	     86.34234280	     87.19786157	      0.00000000	      0.00000000	     78.11524253	    -53.79918293	      7.37989467	     32.23140604	     83.05802100	      0.00000000	      0.00000000
